<?xml version="1.0" encoding="UTF-8"?>
<svg version="1.1" xmlns="http://www.w3.org/2000/svg" width="512" height="512">
<path d="M0 0 C0.79686218 0.00182281 1.59372437 0.00364563 2.41473389 0.00552368 C13.98540986 0.05012574 25.04170676 0.49194688 36.3125 3.3125 C37.01294434 3.47347168 37.71338867 3.63444336 38.43505859 3.80029297 C67.84179337 10.58947259 92.63952445 25.64344975 114.3125 46.3125 C115.15554688 47.09109375 115.99859375 47.8696875 116.8671875 48.671875 C132.9672627 64.0003811 144.40995671 83.66621573 152.3125 104.3125 C152.75207031 105.45460938 153.19164062 106.59671875 153.64453125 107.7734375 C167.97357778 147.68697496 164.92626756 192.95915772 147.28515625 231.28613281 C139.44540793 247.61894182 129.28592994 261.89390303 116.69824219 274.87988281 C115.45499382 276.1651861 114.23014896 277.46823077 113.0078125 278.7734375 C88.49747578 304.36115166 49.8870324 322.01701378 14.38525391 323.47363281 C13.01992418 323.49312656 11.6545036 323.50691413 10.2890625 323.515625 C9.54972473 323.52263931 8.81038696 323.52965363 8.04864502 323.53688049 C5.67820061 323.55427777 3.30800589 323.56073191 0.9375 323.5625 C-0.27652496 323.56351212 -0.27652496 323.56351212 -1.51507568 323.56454468 C-13.19116018 323.54905224 -24.31205839 323.15924172 -35.6875 320.3125 C-36.38794434 320.15152832 -37.08838867 319.99055664 -37.81005859 319.82470703 C-48.30212793 317.4023863 -57.990187 313.72374156 -67.78442383 309.25927734 C-68.62642334 308.87852051 -69.46842285 308.49776367 -70.3359375 308.10546875 C-71.45234619 307.58762817 -71.45234619 307.58762817 -72.59130859 307.05932617 C-74.94462373 306.08875768 -74.94462373 306.08875768 -78.6875 306.3125 C-80.8394708 307.87068741 -80.8394708 307.87068741 -82.92694092 310.07092285 C-83.76544083 310.9039241 -84.60394073 311.73692535 -85.46784973 312.59516907 C-86.37919174 313.52089218 -87.29053375 314.4466153 -88.22949219 315.40039062 C-89.20458007 316.37660663 -90.18054926 317.35194301 -91.15733337 318.32646179 C-93.80860569 320.97658466 -96.44734953 323.6388753 -99.0840559 326.30348015 C-101.84090325 329.08530263 -104.6090534 331.85583023 -107.3760376 334.62756348 C-112.6148951 339.87886218 -117.84347143 345.14027567 -123.06845307 350.40537691 C-129.01701253 356.39861842 -134.97691009 362.38052971 -140.93779898 368.36150455 C-153.20038142 380.66591724 -165.4486108 392.98452095 -177.6875 405.3125 C-173.07274326 410.77918691 -173.07274326 410.77918691 -168.11645508 415.93359375 C-167.48592728 416.55113525 -166.85539948 417.16867676 -166.20576477 417.80493164 C-165.54618271 418.4468042 -164.88660065 419.08867676 -164.20703125 419.75 C-162.78146072 421.15319863 -161.35634388 422.55685831 -159.93164062 423.9609375 C-157.7110199 426.14441258 -155.48753217 428.32463819 -153.25610352 430.49707031 C-151.08468518 432.61387527 -148.92629309 434.74327717 -146.76953125 436.875 C-146.1038765 437.51687256 -145.43822174 438.15874512 -144.75239563 438.82006836 C-140.24901919 443.29785018 -137.12026464 447.38204855 -136.40234375 453.90234375 C-136.47582031 454.67707031 -136.54929688 455.45179688 -136.625 456.25 C-136.67527344 457.02214844 -136.72554687 457.79429687 -136.77734375 458.58984375 C-139.43525843 466.54077307 -146.80088466 472.72070494 -152.59375 478.484375 C-153.43667603 479.32921448 -154.27960205 480.17405396 -155.14807129 481.04449463 C-156.92063935 482.81841654 -158.69570698 484.58984397 -160.47314453 486.35888672 C-163.18625206 489.061257 -165.88848907 491.77416813 -168.58984375 494.48828125 C-170.31967139 496.21678767 -172.05011912 497.9446738 -173.78125 499.671875 C-174.58453735 500.47921082 -175.38782471 501.28654663 -176.2154541 502.11834717 C-186.01811155 511.8397958 -186.01811155 511.8397958 -191.6875 512.84375 C-192.6775 512.8334375 -193.6675 512.823125 -194.6875 512.8125 C-195.6775 512.8228125 -196.6675 512.833125 -197.6875 512.84375 C-205.05490964 511.53910454 -210.11535114 505.14863973 -215.1484375 500.046875 C-215.93900543 499.25347717 -216.72957336 498.46007935 -217.5440979 497.64263916 C-220.05498676 495.12060239 -222.55881124 492.59168261 -225.0625 490.0625 C-226.76906888 488.34589438 -228.47609522 486.62974341 -230.18359375 484.9140625 C-234.35687477 480.7187926 -238.52438568 476.51785756 -242.6875 472.3125 C-246.57377894 474.11118545 -249.2038763 476.60373153 -252.15234375 479.65234375 C-252.92512413 480.43648399 -252.92512413 480.43648399 -253.71351624 481.23646545 C-255.9087115 483.46422921 -258.09188366 485.70364049 -260.27612305 487.94213867 C-261.87653401 489.57885204 -263.48301301 491.20943639 -265.08984375 492.83984375 C-265.57645981 493.34305649 -266.06307587 493.84626923 -266.56443787 494.36473083 C-270.06531673 497.91511289 -273.3138624 500.92389561 -278.3359375 501.74609375 C-279.23570312 501.74738281 -280.13546875 501.74867188 -281.0625 501.75 C-282.40441406 501.77900391 -282.40441406 501.77900391 -283.7734375 501.80859375 C-292.24774357 500.36591698 -297.87450103 493.57810767 -303.671875 487.76171875 C-304.61839256 486.81977108 -305.56527833 485.87819327 -306.51251221 484.93696594 C-308.48751584 482.97085533 -310.45680012 480.99922843 -312.42236328 479.02368164 C-314.93106287 476.50347846 -317.45529699 473.99951059 -319.98427963 471.49968243 C-321.9405602 469.56181789 -323.88737107 467.6146501 -325.83161163 465.66471291 C-327.20571446 464.290384 -328.58834119 462.92459448 -329.97113037 461.55900574 C-335.20566209 456.26588133 -340.1079377 451.22940635 -340.125 443.3125 C-339.59713822 435.05795873 -333.47718088 429.6847595 -327.91069031 424.21530151 C-327.12252499 423.42880632 -326.33435967 422.64231112 -325.52231055 421.83198273 C-322.88609493 419.20485739 -320.23932763 416.58862773 -317.5925293 413.97216797 C-315.69802401 412.08833373 -313.80414447 410.20389065 -311.91108704 408.31860352 C-307.83735104 404.26372526 -303.75849161 400.21406156 -299.67639732 396.16759872 C-293.77251998 390.31471661 -287.87984572 384.45065388 -281.99040816 378.58324577 C-272.43144952 369.06009038 -262.8679904 359.54147109 -253.29956055 350.02783203 C-252.72736221 349.45890406 -252.15516387 348.88997608 -251.56562618 348.30380787 C-243.43466161 340.21973304 -235.29926469 332.14013307 -227.16211215 324.06228746 C-226.58839786 323.49275311 -226.01468356 322.92321875 -225.42358398 322.33642578 C-224.56405749 321.48317018 -224.56405749 321.48317018 -223.68716683 320.61267708 C-214.14229257 311.13684112 -204.60895839 301.64949275 -195.08505756 292.15257752 C-189.20992893 286.29502703 -183.3251936 280.44746367 -177.42784492 274.61228324 C-173.39232494 270.61780418 -169.36761339 266.6126501 -165.35134592 262.59881459 C-163.03194925 260.28153529 -160.70627116 257.97122946 -158.37054062 255.67039871 C-155.84286823 253.1790568 -153.33411347 250.67011384 -150.82939148 248.1557312 C-150.08214504 247.42800817 -149.33489861 246.70028515 -148.56500834 245.95050991 C-147.90065424 245.2760596 -147.23630013 244.6016093 -146.55181408 243.90672112 C-145.97035222 243.3291638 -145.38889037 242.75160648 -144.78980845 242.15654743 C-143.42636249 240.294231 -143.42636249 240.294231 -143.9604457 237.70974839 C-144.62476046 235.51936524 -145.36842428 233.5444812 -146.359375 231.484375 C-146.85787964 230.42162354 -146.85787964 230.42162354 -147.36645508 229.33740234 C-147.7198999 228.58668457 -148.07334473 227.8359668 -148.4375 227.0625 C-165.54557055 189.5432588 -166.37792348 145.0361895 -152.6875 106.3125 C-144.49109072 84.6618562 -132.58215569 66.09019212 -116.6875 49.3125 C-115.79546875 48.35601562 -114.9034375 47.39953125 -113.984375 46.4140625 C-84.51842659 15.44602666 -42.26564202 -0.20039697 0 0 Z M-51.6875 101.3125 C-52.48027344 101.90804687 -53.27304687 102.50359375 -54.08984375 103.1171875 C-68.64287989 115.41614436 -76.64540866 134.0743276 -79.4375 152.5625 C-79.52 153.8 -79.6025 155.0375 -79.6875 156.3125 C-79.7390625 157.07949219 -79.790625 157.84648437 -79.84375 158.63671875 C-80.31323615 171.72364507 -77.47368315 184.60749913 -71.6875 196.3125 C-71.26855469 197.22257812 -70.84960938 198.13265625 -70.41796875 199.0703125 C-66.48266588 207.03164568 -60.89561886 213.09566187 -54.6875 219.3125 C-53.9553125 220.05628906 -53.223125 220.80007812 -52.46875 221.56640625 C-36.81591818 236.48916196 -16.47165268 241.83565018 4.6796875 241.5234375 C26.09220428 240.81232071 45.12611463 230.58338473 59.7421875 215.328125 C67.10018883 206.69533316 72.60300676 197.04820985 76.3125 186.3125 C76.63089844 185.46429688 76.94929687 184.61609375 77.27734375 183.7421875 C83.46422866 164.1836481 79.71294376 141.76520951 70.51538086 123.90405273 C67.39454517 118.1590566 63.73701386 113.13462792 59.3125 108.3125 C58.64863281 107.55710937 57.98476563 106.80171875 57.30078125 106.0234375 C47.03803616 94.9829243 34.47861668 88.77724831 20.3125 84.3125 C19.4771875 84.04566406 18.641875 83.77882813 17.78125 83.50390625 C-6.45681324 77.3163725 -33.14853223 85.25813616 -51.6875 101.3125 Z " fill="#FEA200" transform="translate(344.6875,-0.3125)"/>
</svg>
