<?xml version="1.0" encoding="UTF-8"?>
<svg version="1.1" xmlns="http://www.w3.org/2000/svg" width="512" height="512">
<path d="M0 0 C0.64567937 -0.00265183 1.29135874 -0.00530365 1.95660415 -0.00803584 C4.1290917 -0.01572036 6.30152264 -0.01628769 8.47402287 -0.01688576 C10.04388493 -0.02090096 11.61374595 -0.02533927 13.18360573 -0.03016531 C17.50487081 -0.04213056 21.82612472 -0.04777917 26.14740312 -0.05234647 C30.80543746 -0.05830285 35.46345846 -0.06991271 40.1214838 -0.08063698 C51.37544229 -0.10516171 62.62940519 -0.11978904 73.88338217 -0.13269705 C77.062451 -0.13640918 80.24151939 -0.1403824 83.42058778 -0.14444971 C103.16475378 -0.16968844 122.90892048 -0.19174027 142.65309906 -0.20417786 C147.22671289 -0.20710753 151.80032669 -0.21006919 156.37394047 -0.21308327 C158.07905467 -0.21420234 158.07905467 -0.21420234 159.81861562 -0.21534403 C178.22629361 -0.22799311 196.63387491 -0.26120997 215.04150771 -0.3028851 C233.94341519 -0.34532813 252.8452732 -0.36887571 271.74722821 -0.37409842 C282.35862278 -0.37751004 292.96986631 -0.38923576 303.58121395 -0.42220116 C312.62008371 -0.45023546 321.65877145 -0.46118618 330.6976813 -0.4500057 C335.3069466 -0.44482755 339.91583094 -0.44765076 344.52504063 -0.47247124 C348.75152407 -0.49504 352.97735457 -0.4941652 357.20385004 -0.47526737 C358.72616798 -0.47247797 360.24853093 -0.47800646 361.7707768 -0.4930803 C376.87724385 -0.63342443 388.24237437 3.30279878 399.25016117 13.71904564 C406.2338098 21.11667344 410.7277319 30.84565125 410.67594242 40.99638939 C410.67271976 42.11142845 410.66949711 43.22646751 410.6661768 44.37529564 C410.65779789 45.53416283 410.64941898 46.69303001 410.64078617 47.88701439 C410.63627445 49.06135033 410.63176273 50.23568626 410.6271143 51.44560814 C410.61533711 54.34279511 410.59888943 57.23987893 410.57828617 60.13701439 C409.96758966 60.14032454 409.35689316 60.14363468 408.7276907 60.14704514 C393.80982714 60.22856586 378.89205743 60.32075111 363.97433376 60.42454147 C356.75998229 60.47448315 349.54564114 60.52092673 342.33121586 60.55888939 C336.03692187 60.59201942 329.74271264 60.63196332 323.44851267 60.67980444 C320.1214001 60.70486285 316.79439776 60.72568534 313.46721363 60.74035835 C280.30864755 60.77596743 280.30864755 60.77596743 251.57828617 76.13701439 C250.6095557 76.93558861 250.6095557 76.93558861 249.62125492 77.75029564 C237.41256842 88.85661767 232.56626962 104.16884202 231.57828617 120.13701439 C231.41705288 126.06092809 231.39344219 131.98341586 231.37296391 137.90923119 C231.36323222 139.71278825 231.3530859 141.51634313 231.34256172 143.31989574 C231.31567361 148.12181859 231.29441258 152.92375045 231.27436924 157.7257061 C231.25464955 162.24226299 231.22978555 166.75878606 231.20536137 171.27532005 C231.13703641 184.45835923 231.07690513 197.64143984 231.01578617 210.82451439 C230.87141117 240.29763939 230.72703617 269.77076439 230.57828617 300.13701439 C140.81828617 300.13701439 51.05828617 300.13701439 -41.42171383 300.13701439 C-41.52483883 256.68013939 -41.62796383 213.22326439 -41.73421383 168.44951439 C-41.77973385 154.73300316 -41.82525387 141.01649193 -41.87215328 126.88432884 C-41.89473629 110.1217556 -41.89473629 110.1217556 -41.89893246 102.27194786 C-41.90358663 96.79490849 -41.92189097 91.31811741 -41.94959164 85.84116173 C-41.98152795 79.51733516 -41.99586818 73.1937536 -41.98893858 66.86984588 C-41.98593981 63.63811176 -41.99336196 60.40703184 -42.01778948 57.17537367 C-42.15104774 38.68198218 -41.06074978 25.43703263 -27.83968258 11.46513939 C-20.20066073 4.25360538 -10.42133975 0.02108627 0 0 Z " fill="#FEA200" transform="translate(71.42171382904053,60.862985610961914)"/>
<path d="M0 0 C1.30852432 -0.01022186 2.61704865 -0.02044373 3.96522522 -0.03097534 C7.5316153 -0.05759545 11.09757943 -0.0589307 14.66404939 -0.05384874 C17.65325388 -0.05169787 20.64237419 -0.06150532 23.6315605 -0.07105958 C30.69096211 -0.09319564 37.75015085 -0.09415618 44.80957031 -0.08203125 C52.06422589 -0.06996146 59.31810473 -0.09455969 66.57262784 -0.13717139 C72.82607353 -0.17253658 79.07927348 -0.18438518 85.33281535 -0.1778959 C89.05676118 -0.17429011 92.78015313 -0.1793392 96.50400734 -0.20732498 C100.66333105 -0.23741773 104.82110015 -0.21842816 108.98046875 -0.1953125 C110.19488647 -0.21059998 111.4093042 -0.22588745 112.66052246 -0.24163818 C121.79213202 -0.13003136 129.5190535 2.2023376 136.61321735 8.1726284 C143.37256988 15.43999083 145.28166208 23.60741881 145.20571899 33.26960754 C145.21719564 34.8365262 145.21719564 34.8365262 145.22890413 36.43509978 C145.24945552 39.91714613 145.24160103 43.39852618 145.23364258 46.88061523 C145.24234163 49.38461413 145.25270954 51.8886077 145.26461792 54.39259338 C145.28859415 60.47750681 145.29370682 66.56216077 145.28901739 72.64709762 C145.28544369 77.59626604 145.28896603 82.54538103 145.29746628 87.49454308 C145.29865666 88.20035147 145.29984703 88.90615986 145.30107348 89.63335639 C145.30349713 91.06746581 145.3059254 92.50157523 145.30835824 93.93568464 C145.3300866 107.37019557 145.32579525 120.80460598 145.31358854 134.23912253 C145.30325446 146.51050417 145.3257535 158.78156808 145.36378498 171.05288688 C145.40259628 183.67323826 145.41904414 196.29343955 145.41153848 208.91385096 C145.40772231 215.99116931 145.41261193 223.06821737 145.44096756 230.14548683 C145.46737361 236.80319049 145.46220214 243.46015746 145.43614578 250.11789513 C145.43142294 252.55588879 145.43685253 254.99392737 145.45339203 257.43186951 C145.61115846 282.50215995 145.61115846 282.50215995 137.06101418 292.4351778 C129.05998468 300.08072735 120.02203529 301.14188243 109.36865234 301.09863281 C108.06012802 301.10885468 106.7516037 301.11907654 105.40342712 301.12960815 C101.83703704 301.15622827 98.27107291 301.15756351 94.70460296 301.15248156 C91.71539846 301.15033069 88.72627816 301.16013813 85.73709184 301.1696924 C78.67769023 301.19182846 71.61850149 301.192789 64.55908203 301.18066406 C57.30442645 301.16859427 50.05054761 301.1931925 42.7960245 301.2358042 C36.54257882 301.27116939 30.28937886 301.28301799 24.03583699 301.27652872 C20.31189117 301.27292292 16.58849921 301.27797201 12.864645 301.30595779 C8.7053213 301.33605054 4.54755219 301.31706098 0.38818359 301.29394531 C-0.82623413 301.30923279 -2.04065186 301.32452026 -3.29187012 301.340271 C-12.42347968 301.22866417 -20.15040116 298.89629521 -27.24456501 292.92600441 C-34.00391753 285.65864198 -35.91300973 277.491214 -35.83706665 267.82902527 C-35.84471774 266.78441283 -35.85236884 265.73980039 -35.86025178 264.66353303 C-35.88080317 261.18148668 -35.87294868 257.70010663 -35.86499023 254.21801758 C-35.87368929 251.71401868 -35.8840572 249.21002512 -35.89596558 246.70603943 C-35.91994181 240.621126 -35.92505448 234.53647205 -35.92036505 228.45153519 C-35.91679134 223.50236677 -35.92031369 218.55325178 -35.92881393 213.60408974 C-35.93000431 212.89828134 -35.93119469 212.19247295 -35.93242114 211.46527642 C-35.93484478 210.031167 -35.93727305 208.59705758 -35.93970589 207.16294817 C-35.96143425 193.72843724 -35.95714291 180.29402684 -35.9449362 166.85951028 C-35.93460212 154.58812864 -35.95710116 142.31706473 -35.99513264 130.04574593 C-36.03394393 117.42539455 -36.0503918 104.80519327 -36.04288614 92.18478185 C-36.03906996 85.1074635 -36.04395959 78.03041544 -36.07231522 70.95314598 C-36.09872127 64.29544233 -36.09354979 57.63847535 -36.06749344 50.98073769 C-36.0627706 48.54274402 -36.06820018 46.10470544 -36.08473969 43.66676331 C-36.24250612 18.59647287 -36.24250612 18.59647287 -27.69236183 8.66345501 C-19.69133234 1.01790546 -10.65338295 -0.04324962 0 0 Z M42.68432617 51.54931641 C39.92641687 55.97307697 40.0371038 60.49139341 40.68432617 65.54931641 C42.84731455 69.95540383 45.08113096 72.74806611 49.68432617 74.54931641 C54.72758001 75.23357698 58.51509502 75.12330261 63.12182617 72.86181641 C66.48088629 69.83046947 68.37788248 67.80791992 69.00073242 63.21728516 C69.26646269 57.49979831 68.65279769 53.94681187 64.68432617 49.54931641 C60.88515951 46.19711053 57.08363652 45.98142655 52.19213867 46.12744141 C48.226088 46.7946275 45.40036422 48.61722987 42.68432617 51.54931641 Z M27.68432617 231.54931641 C24.96356572 236.01709146 25.03338102 240.46230062 25.68432617 245.54931641 C27.87776428 250.01743106 30.17137754 252.45794997 34.68432617 254.54931641 C40.54180224 256.026803 46.49168945 255.7353346 52.49438477 255.73461914 C54.54619191 255.73680243 56.5974579 255.75497857 58.64916992 255.77392578 C59.95756836 255.77585937 61.2659668 255.77779297 62.61401367 255.77978516 C63.80236816 255.78389404 64.99072266 255.78800293 66.21508789 255.79223633 C71.5003587 255.42215579 75.45693628 254.61305431 79.49682617 251.11181641 C83.39239985 246.54843009 84.20544033 243.98129964 84.05151367 238.12353516 C83.44305916 233.85788065 81.85516154 231.39580469 78.68432617 228.54931641 C71.83470856 224.82349431 64.15976271 225.11766848 56.57250977 225.21313477 C54.5559925 225.23685562 52.54079278 225.23366025 50.52416992 225.22705078 C38.05717791 225.24148095 38.05717791 225.24148095 27.68432617 231.54931641 Z " fill="#FEA200" transform="translate(367.315673828125,150.45068359375)"/>
<path d="M0 0 C1.03059015 -0.00597315 2.06118029 -0.01194629 3.12300044 -0.01810044 C4.24848409 -0.00936192 5.37396773 -0.00062339 6.53355694 0.00837994 C7.7343099 0.00581666 8.93506287 0.00325339 10.17220229 0.00061244 C13.50176432 -0.00347458 16.83079731 0.00590038 20.16029537 0.02094662 C23.7519246 0.03390202 27.3435375 0.02951788 30.93518353 0.0272398 C37.15680404 0.02566675 43.37833017 0.03507924 49.59992695 0.05195332 C58.59529568 0.07633447 67.59061878 0.08414768 76.58601698 0.08791729 C91.18042852 0.09448316 105.77478977 0.11444801 120.369174 0.14282513 C134.54625478 0.17036218 148.72332189 0.19159749 162.900424 0.20434856 C163.77430009 0.20513673 164.64817618 0.20592491 165.54853336 0.20673696 C169.93251298 0.21065207 174.31649269 0.2144432 178.70047247 0.21817267 C215.06997426 0.24927281 251.43941885 0.30211231 287.80887127 0.36914349 C287.82869061 1.20461712 287.84850994 2.04009075 287.86892986 2.90088177 C287.94816356 6.07329394 288.0348741 9.24539952 288.12625408 12.41748333 C288.18226861 14.43637973 288.2300661 16.45549887 288.27762127 18.47461224 C288.65971757 31.40220389 289.81189489 43.36468852 294.80887127 55.36914349 C295.47686092 57.03528035 296.14369816 58.70188017 296.80887127 60.36914349 C260.19629376 60.506575 223.5837616 60.61225132 186.97097911 60.67553546 C182.64529561 60.68303941 178.31961261 60.69080537 173.99392986 60.69873333 C172.70221995 60.70109412 172.70221995 60.70109412 171.38441488 60.70350261 C157.45384476 60.72958719 143.5234237 60.77688173 129.59294191 60.83206026 C115.29145632 60.8882345 100.99004863 60.92150992 86.68845725 60.93367445 C77.86854995 60.94189375 69.04906401 60.96782224 60.22928646 61.01664229 C54.17541721 61.04843857 48.12176476 61.05792596 42.06781814 61.05015175 C38.57853367 61.04632104 35.08998377 61.05205549 31.60083103 61.08437634 C27.80780185 61.11435583 24.01655601 61.10700575 20.22348309 61.09067059 C19.13395313 61.10814763 18.04442317 61.12562468 16.92187715 61.14363134 C8.19310696 61.04245043 0.48230913 58.42287058 -6.19780993 52.62855375 C-14.14229043 44.26596537 -14.82489512 34.75638572 -14.69112873 23.68164349 C-14.70659748 22.38935833 -14.72206623 21.09707317 -14.73800373 19.76562786 C-14.68895654 7.89007657 -14.68895654 7.89007657 -10.19112873 3.36914349 C-6.66213462 0.90258302 -4.29578006 -0.00550976 0 0 Z " fill="#FEA200" transform="translate(14.191128730773926,390.63085651397705)"/>
</svg>
